{
    "asset" : {
        "generator" : "Khronos glTF Blender I/O v3.2.43",
        "version" : "2.0"
    },
    "scene" : 0,
    "scenes" : [
        {
            "name" : "Scene",
            "nodes" : [
                0
            ]
        }
    ],
    "nodes" : [
        {
            "mesh" : 0,
            "name" : "environment-ico-platform-mesh",
            "scale" : [
                30,
                30,
                30
            ]
        }
    ],
    "materials" : [
        {
            "doubleSided" : true,
            "name" : "environment-ico-platform-material",
            "pbrMetallicRoughness" : {
                "baseColorFactor" : [
                    0.028918055817484856,
                    0,
                    0.10247363150119781,
                    1
                ],
                "metallicFactor" : 0,
                "roughnessFactor" : 0.5
            }
        }
    ],
    "meshes" : [
        {
            "name" : "Icosphere",
            "primitives" : [
                {
                    "attributes" : {
                        "POSITION" : 0,
                        "NORMAL" : 1,
                        "TEXCOORD_0" : 2
                    },
                    "indices" : 3,
                    "material" : 0
                }
            ]
        }
    ],
    "accessors" : [
        {
            "bufferView" : 0,
            "componentType" : 5126,
            "count" : 130,
            "max" : [
                0.9510578513145447,
                0,
                0.9999999403953552
            ],
            "min" : [
                -0.9510578513145447,
                -1,
                -0.9999999403953552
            ],
            "type" : "VEC3"
        },
        {
            "bufferView" : 1,
            "componentType" : 5126,
            "count" : 130,
            "type" : "VEC3"
        },
        {
            "bufferView" : 2,
            "componentType" : 5126,
            "count" : 130,
            "type" : "VEC2"
        },
        {
            "bufferView" : 3,
            "componentType" : 5123,
            "count" : 144,
            "type" : "SCALAR"
        }
    ],
    "bufferViews" : [
        {
            "buffer" : 0,
            "byteLength" : 1560,
            "byteOffset" : 0
        },
        {
            "buffer" : 0,
            "byteLength" : 1560,
            "byteOffset" : 1560
        },
        {
            "buffer" : 0,
            "byteLength" : 1040,
            "byteOffset" : 3120
        },
        {
            "buffer" : 0,
            "byteLength" : 288,
            "byteOffset" : 4160
        }
    ],
    "buffers" : [
        {
            "byteLength" : 4448,
            "uri" : "platformv1.bin"
        }
    ]
}
